<?xml version="1.0" encoding="utf-8"?>
<!-- Generator: Adobe Illustrator 27.9.5, SVG Export Plug-In . SVG Version: 9.03 Build 54986)  -->
<svg version="1.1" id="Capa_1" xmlns="http://www.w3.org/2000/svg" xmlns:xlink="http://www.w3.org/1999/xlink" x="0px" y="0px"
	 viewBox="0 0 800 800" style="enable-background:new 0 0 800 800;" xml:space="preserve">
<style type="text/css">
	.st0{fill-rule:evenodd;clip-rule:evenodd;fill:#FFFFFF;}
</style>
<path class="st0" d="M629.1,288.6c-10.7,16.5-16.4,50.2-17.2,100.9c-0.1,3.2-0.3,6.5-0.3,9.9c0,4,0,8,0.1,11.7
	c0.7,50.7,6.5,84.3,17.2,100.9c5.6,9.1,11.4,12.3,17.1,9.6c-1.4,4.7-4.8,9.5-10.1,14.2c-10.6,9.5-25.5,14.2-44.5,14.2
	s-34.7-6.3-47-18.9c-3.9-4-8.3-16.3-13.4-36.5c-4.5-18.1-6.8-46.9-6.6-86.4c0.1-5.6,0.1-11.2,0.1-16.4c0-39.5,2.2-68.4,6.8-86.4
	c5.1-20.3,9.5-32.4,13.4-36.5c12.3-12.5,27.8-18.9,47-18.9s33.9,4.7,44.5,14.2c5.4,4.7,8.7,9.5,10.2,14.2
	C640.4,276.3,634.7,279.6,629.1,288.6 M720.3,253.9c26,1.8,38.7,25.6,37.9,71.4c-0.7,39-13.4,61-37.9,66.1h-71.4
	c44.1-44,44.4-89.7,0.8-137.5H720.3z M720.3,408.2c26,1.8,38.7,25.5,37.9,71.4c-0.7,39.1-13.4,61.2-37.9,66.3h-71.4
	c44.1-44,44.4-89.8,0.8-137.7H720.3z M41.8,258.1h83.6c12.3,5.8,21.9,14.3,29.2,25.4c-5,1.5-9.9,7.9-15,19
	c-9.2,20.5-14.2,51.8-15,94.1v0.7v0.1c0,1.8,0,3.4,0,5.2s0,3.6,0,5.4v0.6c0.8,42.3,5.8,73.6,15,94.3c5,11.2,9.9,17.5,15,19
	c-7.3,11.2-16.9,19.6-29.2,25.5H41.8V258.1z M228.1,254.4c6.6,4,13.4,13.2,20.1,27.6c12.3,26.9,19,63.7,19.8,110.5
	c0,2.5,0.1,5.1,0.1,7.7v3.6v4c0,1.2-0.1,2.5-0.1,3.7c-1,46.9-7.6,83.8-19.8,110.5c-6.8,14.3-13.5,23.6-20.1,27.6h-88.2
	c8.5-4.3,17.1-13.8,25.5-28.7c15.6-27.3,24.1-64.6,25.4-111.8c0.1-0.6,0.1-1.1,0.1-1.8V406v-8v-1.4c0-0.7,0-1.2-0.1-1.9
	c-1.2-47.1-9.8-84.5-25.4-111.8c-8.4-14.9-16.9-24.4-25.5-28.7h88.2V254.4z M283.5,404.2v-4.3V398c0-1.9,0-4,0-5.9
	c-0.1-39.5,2.2-68.2,6.6-86.3c5.1-20.3,9.5-32.4,13.4-36.5c12.3-12.5,27.8-18.9,47-18.9s33.9,4.7,44.5,14.2
	c5.4,4.7,8.7,9.5,10.2,14.2c-5.8-2.6-11.4,0.7-17.1,9.6c-10.7,16.5-16.4,50.2-17.2,100.9c-0.1,3.3-0.1,6.6-0.1,9.9v4.1
	c0,1.2,0.1,2.6,0.1,3.9s0,2.5,0,3.7c0.7,50.7,6.5,84.3,17.2,100.9c5.6,9.1,11.4,12.3,17.1,9.6c-1.4,4.7-4.8,9.5-10.2,14.2
	c-10.6,9.5-25.5,14.2-44.5,14.2c-19,0-34.7-6.3-47-18.9c-3.9-4-8.3-16.3-13.4-36.7c-4.5-17.9-6.8-46.7-6.6-86.3
	C283.3,407.1,283.3,405.7,283.5,404.2 M436.6,453.3c-28.7,6.3-46.9,0.7-54.8-17.2c-3.4-14.1-0.6-22.6,8.7-25.6l88.9-0.7
	c26,1.8,38.6,25.6,37.9,71.4c-0.7,39-13.4,61.2-37.9,66.3h-71.4C438.5,516.8,448,485.5,436.6,453.3 M508.9,353.5l-77.4-4
	c11.3-31,2.1-62.8-27.8-95.6h70.4c26,1.8,38.6,25.6,37.9,71.4C511.9,335.9,510.8,345.4,508.9,353.5"/>
</svg>
