<?xml version="1.0" encoding="utf-8"?>
<!-- Generator: Adobe Illustrator 27.9.5, SVG Export Plug-In . SVG Version: 9.03 Build 54986)  -->
<svg version="1.1" xmlns="http://www.w3.org/2000/svg" xmlns:xlink="http://www.w3.org/1999/xlink" x="0px" y="0px"
	 viewBox="0 0 500 500" style="enable-background:new 0 0 500 500;" xml:space="preserve">
<style type="text/css">
	.st0{fill:#EBEBEB;}
	.st1{fill:#E0E0E0;}
	.st2{fill:#F0F0F0;}
	.st3{fill:#E6E6E6;}
	.st4{fill:#FFFFFF;}
	.st5{fill:#F5F5F5;}
	.st6{display:none;}
	.st7{display:inline;}
	.st8{fill:#407BFF;}
	.st9{opacity:0.9;fill:#FFFFFF;}
	.st10{opacity:0.2;}
	.st11{opacity:0.5;fill:#407BFF;}
	.st12{opacity:0.5;fill:#FFFFFF;}
	.st13{opacity:0.3;fill:#407BFF;}
	.st14{opacity:0.6;fill:#407BFF;}
	.st15{fill:#CE7A63;}
	.st16{fill:#263238;}
	.st17{opacity:0.1;}
	.st18{opacity:0.4;}
	.st19{opacity:0.3;}
	.st20{fill:#BA4D3C;}
</style>
<g id="Background_Complete">
	<g>
		<rect y="382.4" class="st0" width="500" height="0.2"/>
		<rect x="416.8" y="398.5" class="st0" width="33.1" height="0.2"/>
		<rect x="322.5" y="401.2" class="st0" width="8.7" height="0.2"/>
		<rect x="396.6" y="389.2" class="st0" width="19.2" height="0.2"/>
		<rect x="52.5" y="390.9" class="st0" width="43.2" height="0.2"/>
		<rect x="104.6" y="390.9" class="st0" width="6.3" height="0.2"/>
		<rect x="131.5" y="395.1" class="st0" width="93.7" height="0.2"/>
		<path class="st0" d="M237,337.8H43.9c-3.1,0-5.7-2.6-5.7-5.7V60.7c0-3.1,2.6-5.7,5.7-5.7H237c3.1,0,5.7,2.6,5.7,5.7v271.4
			C242.7,335.2,240.2,337.8,237,337.8z M43.9,55.2c-3,0-5.5,2.4-5.5,5.5v271.4c0,3,2.4,5.5,5.5,5.5H237c3,0,5.5-2.4,5.5-5.5V60.7
			c0-3-2.4-5.5-5.5-5.5H43.9z"/>
		<path class="st0" d="M453.3,337.8H260.2c-3.1,0-5.7-2.6-5.7-5.7V60.7c0-3.1,2.6-5.7,5.7-5.7h193.1c3.1,0,5.7,2.6,5.7,5.7v271.4
			C459,335.2,456.5,337.8,453.3,337.8z M260.2,55.2c-3,0-5.5,2.4-5.5,5.5v271.4c0,3,2.4,5.5,5.5,5.5h193.1c3,0,5.5-2.4,5.5-5.5V60.7
			c0-3-2.4-5.5-5.5-5.5H260.2z"/>
	</g>
	<g>
		<path class="st1" d="M85.6,102.9c0.1-13.1,10.8-23.7,23.9-23.7c3.2,0,6.2,0.6,8.9,1.7c4.7-9.6,14.5-16.2,26-16.2
			c13.8,0,25.3,9.7,28.2,22.6c13,0.8,23.2,11.6,23.2,24.8c0,13.7-11.1,24.9-24.9,24.9H91.9c-9.7,0-17.6-7.9-17.6-17.6
			C74.3,111.8,79,105.4,85.6,102.9z"/>
		<path class="st1" d="M366.1,297.8c0.1-8.1,6.6-14.6,14.7-14.6c2,0,3.8,0.4,5.5,1.1c2.9-5.9,9-10,16-10c8.5,0,15.6,6,17.4,13.9
			c8,0.5,14.3,7.2,14.3,15.3c0,8.5-6.9,15.3-15.3,15.3H370c-6,0-10.9-4.9-10.9-10.9C359.1,303.3,362,299.3,366.1,297.8z"/>
		<g>
			<path class="st2" d="M102.2,254.2c0.1-13.7,11.3-24.8,25-24.8c3.3,0,6.5,0.7,9.4,1.8c4.9-10.1,15.3-17,27.2-17
				c14.5,0,26.5,10.1,29.5,23.7c13.6,0.9,24.4,12.2,24.4,26c0,14.4-11.7,26-26,26h-82.9c-10.2,0-18.5-8.3-18.5-18.5
				C90.3,263.6,95.2,256.9,102.2,254.2z"/>
			<path class="st3" d="M119.4,278c0,2.1-1.7,3.8-3.8,3.8s-3.8-1.7-3.8-3.8c0-2.1,1.7-3.8,3.8-3.8S119.4,275.9,119.4,278z"/>
			<path class="st4" d="M133.6,278c0,2.1-1.7,3.8-3.8,3.8c-2.1,0-3.8-1.7-3.8-3.8c0-2.1,1.7-3.8,3.8-3.8
				C132,274.2,133.6,275.9,133.6,278z"/>
		</g>
		<g>
			<path class="st5" d="M360.7,133.3c0.1-9.5,7.8-17.2,17.3-17.2c2.3,0,4.5,0.5,6.5,1.3c3.4-7,10.6-11.8,18.8-11.8
				c10,0,18.4,7,20.5,16.4c9.4,0.6,16.9,8.4,16.9,18c0,10-8.1,18-18,18h-57.4c-7.1,0-12.8-5.7-12.8-12.8
				C352.5,139.8,355.9,135.1,360.7,133.3z"/>
			<path class="st4" d="M413.1,149c0,1.4-1.1,2.4-2.4,2.4c-1.4,0-2.4-1.1-2.4-2.4c0-1.4,1.1-2.4,2.4-2.4
				C412,146.6,413.1,147.7,413.1,149z"/>
			<path class="st4" d="M422.3,149c0,1.4-1.1,2.4-2.4,2.4c-1.4,0-2.4-1.1-2.4-2.4c0-1.4,1.1-2.4,2.4-2.4
				C421.2,146.6,422.3,147.7,422.3,149z"/>
			<path class="st3" d="M403.9,149c0,1.4-1.1,2.4-2.4,2.4c-1.4,0-2.4-1.1-2.4-2.4c0-1.4,1.1-2.4,2.4-2.4
				C402.8,146.6,403.9,147.7,403.9,149z"/>
		</g>
	</g>
</g>
<g id="Background_Simple" class="st6">
	<g class="st7">
		<path class="st8" d="M223.3,118.1c-12.6,46.8-8,96.2,54.5,110.4c47,10.7,70.2-46.2,114.3-2.4c78.1,77.4-38.8,179.1-139.9,162
			C151.1,370.9,56.9,270.8,79.1,153.7c7.2-38.3,30.4-85.3,71.6-96C186.4,48.4,234.6,76.3,223.3,118.1z"/>
		<path class="st9" d="M223.3,118.1c-12.6,46.8-8,96.2,54.5,110.4c47,10.7,70.2-46.2,114.3-2.4c78.1,77.4-38.8,179.1-139.9,162
			C151.1,370.9,56.9,270.8,79.1,153.7c7.2-38.3,30.4-85.3,71.6-96C186.4,48.4,234.6,76.3,223.3,118.1z"/>
	</g>
</g>
<g id="Shadow_1_">
	<ellipse id="_x3C_Path_x3E__154_" class="st5" cx="250" cy="416.2" rx="193.9" ry="11.3"/>
</g>
<g id="Cloud">
	<g>
		<g>
			<path class="st8" d="M201.4,97.4h-18.4c-24.4,0-45.3,14.8-54.3,36h-14.6c-27.9,0-50.4,22.6-50.4,50.4c0,27.9,22.6,50.4,50.4,50.4
				h87.3L201.4,97.4z"/>
			<path class="st8" d="M158,100.3l-0.4-0.9c2.3-1,4.7-1.9,7.1-2.7l0.3,1C162.6,98.4,160.2,99.2,158,100.3z"/>
			<path class="st8" d="M135.2,117.9l-0.8-0.6c4.6-5.8,10.2-10.6,16.5-14.4l0.5,0.9C145.2,107.4,139.7,112.2,135.2,117.9z"/>
			<path class="st10" d="M201.4,97.4h-18.4c-24.4,0-45.3,14.8-54.3,36h-14.6c-27.9,0-50.4,22.6-50.4,50.4
				c0,27.9,22.6,50.4,50.4,50.4h87.3L201.4,97.4z"/>
			<g>
				<path class="st11" d="M132.3,126.5h26.4l19.5-17.3h-30.4C141.6,113.9,136.3,119.7,132.3,126.5z"/>
				<path class="st11" d="M72.3,155.7c-3.5,5.2-6.1,11-7.4,17.3H95v-17.3H72.3z"/>
				<path class="st11" d="M195.8,101.5h-34.2c-3.7,1.4-7.2,3.2-10.5,5.4h25.2L195.8,101.5z"/>
			</g>
		</g>
		<path class="st8" d="M301.9,172.2c-5-21.3-23.6-37.4-46.1-38.7c-8.9-21.2-29.9-36.1-54.3-36.1c-25.1,0-46.6,15.8-55,37.9
			c-4.4-1.3-9-1.9-13.8-1.9c-27.9,0-50.4,22.6-50.4,50.4c0,27.9,22.6,50.4,50.4,50.4h160.7c17.5,0,31.6-14.2,31.6-31.6
			C324.9,188.2,315.1,176,301.9,172.2z"/>
		<g>
			<path class="st10" d="M300.8,176.1l-2.3-0.6l-0.5-2.3c-4.7-19.8-22.1-34.5-42.4-35.6l-2.5-0.1l-1-2.3
				c-8.6-20.4-28.5-33.6-50.6-33.6c-0.7,0-1.4,0-2.1,0c21.3,0.8,40.2,13.8,48.5,33.6l1,2.3l2.5,0.1c20.3,1.2,37.8,15.8,42.4,35.6
				l0.5,2.3l2.3,0.6c11.8,3.4,20.1,14.3,20.1,26.6c0,15.2-12.4,27.6-27.6,27.6h4.2c15.2,0,27.6-12.4,27.6-27.6
				C320.9,190.4,312.6,179.4,300.8,176.1z"/>
			<path class="st4" d="M296.5,176.1l-2.3-0.6l-0.5-2.3c-4.7-19.8-22.1-34.5-42.4-35.6l-2.5-0.1l-1-2.3
				c-8.3-19.8-27.2-32.8-48.5-33.6h-0.1c-21.8,0.9-41.3,14.9-49.1,35.3l-1.3,3.4l-3.5-1c-0.1,0-0.2-0.1-0.3-0.1
				c-4.1-1.1-8.3-1.7-12.4-1.7c-0.7,0-1.5,0-2.2,0c-24.6,1.1-44.3,21.5-44.3,46.4c0,25.6,20.8,46.5,46.5,46.5H289
				c15.2,0,27.6-12.4,27.6-27.6C316.6,190.4,308.4,179.4,296.5,176.1z"/>
			<polygon class="st8" points="181.4,170.7 181.4,210.4 221.4,210.4 221.4,170.7 234,170.7 201.4,134 168.7,170.7 			"/>
		</g>
	</g>
	<g>
		<path class="st8" d="M175.4,287.1h-2c-2.9,0-5.2-2.3-5.2-5.2v-20.6h12.4v20.6C180.6,284.8,178.2,287.1,175.4,287.1z"/>
		<path class="st10" d="M175.4,287.1h-2c-2.9,0-5.2-2.3-5.2-5.2v-20.6h12.4v20.6C180.6,284.8,178.2,287.1,175.4,287.1z"/>
		<path class="st8" d="M176.3,267.7h-3.9c-5.4,0-9.8-4.4-9.8-9.8v-23.6h23.6v23.6C186.1,263.3,181.7,267.7,176.3,267.7z"/>
		<polygon class="st10" points="186.1,240.2 162.6,243.8 162.6,234.3 186.1,234.3 		"/>
		<circle class="st4" cx="181.2" cy="252.1" r="3.1"/>
		<circle class="st12" cx="172.8" cy="252.1" r="3.1"/>
		<path class="st8" d="M252.8,321.7h-52.4c-15.7,0-28.5-12.8-28.5-28.5v-6.1h5v6.1c0,13,10.5,23.5,23.5,23.5h52.4V321.7z"/>
	</g>
</g>
<g id="Server">
	<g>
		<g>
			<path class="st8" d="M375.2,196.3h-85.9c-7.2,0-13,5.9-13,13v193.8c0,7.2,5.9,13,13,13h85.9c7.2,0,13-5.9,13-13V209.4
				C388.2,202.2,382.4,196.3,375.2,196.3z"/>
			<path class="st10" d="M375.2,196.3h-85.9c-7.2,0-13,5.9-13,13v193.8c0,7.2,5.9,13,13,13h85.9c7.2,0,13-5.9,13-13V209.4
				C388.2,202.2,382.4,196.3,375.2,196.3z"/>
		</g>
		<path class="st8" d="M351.8,196.3h-85.9c-7.2,0-13,5.9-13,13v193.8c0,7.2,5.9,13,13,13h85.9c7.2,0,13-5.9,13-13V209.4
			C364.8,202.2,358.9,196.3,351.8,196.3z"/>
		<path class="st10" d="M265.8,411.9c-4.8,0-8.7-3.9-8.7-8.7V209.4c0-4.8,3.9-8.7,8.7-8.7h85.9c4.8,0,8.7,3.9,8.7,8.7v193.8
			c0,4.8-3.9,8.7-8.7,8.7H265.8z"/>
		<path class="st4" d="M269.9,411.9c-4.8,0-8.7-3.9-8.7-8.7V209.4c0-4.8,3.9-8.7,8.7-8.7h81.9c4.8,0,8.7,3.9,8.7,8.7v193.8
			c0,4.8-3.9,8.7-8.7,8.7H269.9z"/>
		<g>
			<path class="st13" d="M346.9,226.1h-72.2c-3.7,0-6.8-3-6.8-6.8l0,0c0-3.7,3-6.8,6.8-6.8h72.2c3.7,0,6.8,3,6.8,6.8l0,0
				C353.7,223.1,350.7,226.1,346.9,226.1z"/>
			<path class="st4" d="M323.1,220.8h-49.5c-0.8,0-1.5-0.7-1.5-1.5l0,0c0-0.8,0.7-1.5,1.5-1.5h49.5c0.8,0,1.5,0.7,1.5,1.5l0,0
				C324.6,220.2,323.9,220.8,323.1,220.8z"/>
			<circle class="st8" cx="341" cy="219.3" r="1.5"/>
			<circle class="st8" cx="347.5" cy="219.3" r="1.5"/>
			<circle class="st8" cx="334.5" cy="219.3" r="1.5"/>
		</g>
		<g>
			<path class="st13" d="M346.9,247.8h-72.2c-3.7,0-6.8-3-6.8-6.8l0,0c0-3.7,3-6.8,6.8-6.8h72.2c3.7,0,6.8,3,6.8,6.8l0,0
				C353.7,244.8,350.7,247.8,346.9,247.8z"/>
			<path class="st4" d="M323.1,242.6h-49.5c-0.8,0-1.5-0.7-1.5-1.5l0,0c0-0.8,0.7-1.5,1.5-1.5h49.5c0.8,0,1.5,0.7,1.5,1.5l0,0
				C324.6,241.9,323.9,242.6,323.1,242.6z"/>
			<circle class="st8" cx="341" cy="241.1" r="1.5"/>
			<circle class="st8" cx="347.5" cy="241.1" r="1.5"/>
			<circle class="st13" cx="334.5" cy="241.1" r="1.5"/>
		</g>
		<g>
			<path class="st13" d="M346.9,269.6h-72.2c-3.7,0-6.8-3-6.8-6.8l0,0c0-3.7,3-6.8,6.8-6.8h72.2c3.7,0,6.8,3,6.8,6.8l0,0
				C353.7,266.5,350.7,269.6,346.9,269.6z"/>
			<path class="st4" d="M323.1,264.3h-49.5c-0.8,0-1.5-0.7-1.5-1.5l0,0c0-0.8,0.7-1.5,1.5-1.5h49.5c0.8,0,1.5,0.7,1.5,1.5l0,0
				C324.6,263.6,323.9,264.3,323.1,264.3z"/>
			<circle class="st8" cx="341" cy="262.8" r="1.5"/>
			<circle class="st8" cx="347.5" cy="262.8" r="1.5"/>
			<circle class="st14" cx="334.5" cy="262.8" r="1.5"/>
		</g>
		<g>
			<path class="st13" d="M346.9,291.3h-72.2c-3.7,0-6.8-3-6.8-6.8v0c0-3.7,3-6.8,6.8-6.8h72.2c3.7,0,6.8,3,6.8,6.8v0
				C353.7,288.3,350.7,291.3,346.9,291.3z"/>
			<path class="st4" d="M323.1,286h-49.5c-0.8,0-1.5-0.7-1.5-1.5l0,0c0-0.8,0.7-1.5,1.5-1.5h49.5c0.8,0,1.5,0.7,1.5,1.5l0,0
				C324.6,285.4,323.9,286,323.1,286z"/>
			<circle class="st8" cx="341" cy="284.6" r="1.5"/>
			<circle class="st13" cx="347.5" cy="284.6" r="1.5"/>
			<circle class="st14" cx="334.5" cy="284.6" r="1.5"/>
		</g>
		<g>
			<path class="st13" d="M346.9,313h-72.2c-3.7,0-6.8-3-6.8-6.8l0,0c0-3.7,3-6.8,6.8-6.8h72.2c3.7,0,6.8,3,6.8,6.8l0,0
				C353.7,310,350.7,313,346.9,313z"/>
			<path class="st4" d="M323.1,307.8h-49.5c-0.8,0-1.5-0.7-1.5-1.5l0,0c0-0.8,0.7-1.5,1.5-1.5h49.5c0.8,0,1.5,0.7,1.5,1.5l0,0
				C324.6,307.1,323.9,307.8,323.1,307.8z"/>
			<circle class="st8" cx="341" cy="306.3" r="1.5"/>
			<circle class="st14" cx="347.5" cy="306.3" r="1.5"/>
			<circle class="st8" cx="334.5" cy="306.3" r="1.5"/>
		</g>
		<g>
			<path class="st13" d="M346.9,334.8h-72.2c-3.7,0-6.8-3-6.8-6.8l0,0c0-3.7,3-6.8,6.8-6.8h72.2c3.7,0,6.8,3,6.8,6.8l0,0
				C353.7,331.7,350.7,334.8,346.9,334.8z"/>
			<path class="st4" d="M323.1,329.5h-49.5c-0.8,0-1.5-0.7-1.5-1.5l0,0c0-0.8,0.7-1.5,1.5-1.5h49.5c0.8,0,1.5,0.7,1.5,1.5l0,0
				C324.6,328.8,323.9,329.5,323.1,329.5z"/>
			<circle class="st13" cx="341" cy="328" r="1.5"/>
			<circle class="st8" cx="347.5" cy="328" r="1.5"/>
			<circle class="st8" cx="334.5" cy="328" r="1.5"/>
		</g>
		<g>
			<path class="st13" d="M346.9,356.5h-72.2c-3.7,0-6.8-3-6.8-6.8l0,0c0-3.7,3-6.8,6.8-6.8h72.2c3.7,0,6.8,3,6.8,6.8l0,0
				C353.7,353.5,350.7,356.5,346.9,356.5z"/>
			<path class="st4" d="M323.1,351.2h-49.5c-0.8,0-1.5-0.7-1.5-1.5l0,0c0-0.8,0.7-1.5,1.5-1.5h49.5c0.8,0,1.5,0.7,1.5,1.5l0,0
				C324.6,350.6,323.9,351.2,323.1,351.2z"/>
			<circle class="st13" cx="341" cy="349.8" r="1.5"/>
			<circle class="st8" cx="347.5" cy="349.8" r="1.5"/>
			<circle class="st13" cx="334.5" cy="349.8" r="1.5"/>
		</g>
		<g>
			<path class="st13" d="M346.9,378.3h-72.2c-3.7,0-6.8-3-6.8-6.8v0c0-3.7,3-6.8,6.8-6.8h72.2c3.7,0,6.8,3,6.8,6.8v0
				C353.7,375.2,350.7,378.3,346.9,378.3z"/>
			<path class="st4" d="M323.1,373h-49.5c-0.8,0-1.5-0.7-1.5-1.5l0,0c0-0.8,0.7-1.5,1.5-1.5h49.5c0.8,0,1.5,0.7,1.5,1.5l0,0
				C324.6,372.3,323.9,373,323.1,373z"/>
			<circle class="st8" cx="341" cy="371.5" r="1.5"/>
			<circle class="st8" cx="347.5" cy="371.5" r="1.5"/>
			<circle class="st8" cx="334.5" cy="371.5" r="1.5"/>
		</g>
		<g>
			<path class="st13" d="M346.9,400h-72.2c-3.7,0-6.8-3-6.8-6.8l0,0c0-3.7,3-6.8,6.8-6.8h72.2c3.7,0,6.8,3,6.8,6.8l0,0
				C353.7,396.9,350.7,400,346.9,400z"/>
			<path class="st4" d="M323.1,394.7h-49.5c-0.8,0-1.5-0.7-1.5-1.5l0,0c0-0.8,0.7-1.5,1.5-1.5h49.5c0.8,0,1.5,0.7,1.5,1.5l0,0
				C324.6,394,323.9,394.7,323.1,394.7z"/>
			<circle class="st8" cx="341" cy="393.2" r="1.5"/>
			<circle class="st8" cx="347.5" cy="393.2" r="1.5"/>
			<circle class="st14" cx="334.5" cy="393.2" r="1.5"/>
		</g>
		<path class="st10" d="M381.6,260.2h-10.1c-1.6,0-3-1.3-3-3v-12.5c0-1.6,1.3-3,3-3h10.1c1.6,0,3,1.3,3,3v12.5
			C384.5,258.8,383.2,260.2,381.6,260.2z"/>
	</g>
</g>
<g id="Character_1_">
	<g>
		<g>
			<g>
				<g>
					<polygon class="st15" points="262.9,195.2 274.2,200.1 267.7,207.7 258.3,203.6 					"/>
					<polygon class="st10" points="262.9,195.2 274.2,200.1 270.6,204.4 260.3,199.9 					"/>
				</g>
				<g>
					<path class="st16" d="M269.2,211.7l-1.3-0.3c-0.8-0.2-1.4-0.8-1.6-1.5l0,0l-0.8,0.4c-0.5,0.2-1,0.2-1.5,0.1l-17.3-4.7
						c0.1-1.6,1.6-3.2,1.6-3.2s7.7,1.6,10-0.1c0.2-0.1,0.4-0.2,0.6-0.1c1.4,0.7,6.8,3.3,10.4,3.1c0.5,0,0.8,0.4,0.7,0.9
						C269.4,208.7,269.2,211.7,269.2,211.7z"/>
				</g>
			</g>
			<path class="st16" d="M364.5,159.6l-4.8,10.1c-7.1,15-24.8,22.5-38.8,16.6c-8.2-3.4-17.2-10.7-23.3-14.1
				c-5.2,11.4-15,24-22.5,32.8l-15.1-7.6c5.6-13,14.4-33.2,20-46.3c2-4.8,6.8-8,11.8-8.2C316.9,142.3,364.5,159.6,364.5,159.6z"/>
			<g>
				<g>
					<polygon class="st15" points="291.7,228.4 302.6,227.9 300.6,239.8 291.5,240.2 					"/>
					<polygon class="st10" points="291.7,228.4 302.6,227.9 301.8,232.8 291.6,233.4 					"/>
				</g>
				<g>
					<path class="st16" d="M304.7,240.4l-1.3,0.4c-0.7,0.2-1.6,0.1-2.2-0.4l0,0l-0.5,0.7c-0.3,0.4-0.7,0.7-1.2,0.9l-17.1,5.4
						c-0.7-1.4-0.4-3.6-0.4-3.6s7.4-2.8,8.4-5.5c0.1-0.2,0.3-0.4,0.5-0.4c1.5-0.2,7.6-0.9,10.5-2.9c0.4-0.3,0.9-0.1,1.1,0.4
						C303.3,237.8,304.7,240.4,304.7,240.4z"/>
				</g>
			</g>
			<path class="st16" d="M371.6,155.6l-0.1,10.7c-0.1,15.8-13.5,29.9-29.5,31.1c-9.3,0.7-22,0.9-29.2,0.8c-1.1,11.1-4.5,24.1-8,33.6
				l-15.7-1.1c-0.4-13.4-1-32.4-1.5-45.1c-0.2-4.9,2.8-9.8,7.5-12.1C318.6,161.9,371.6,155.6,371.6,155.6z"/>
			<path class="st17" d="M301.4,231.9c0,0-0.1,0-0.1,0c-0.2-0.1-0.3-0.3-0.2-0.5c2.4-7.8,6.7-32.2,6.9-43.4c0-0.1,0-0.2,0.1-0.3
				c0.1-0.1,0.2-0.1,0.3-0.1c23,3.1,38.6,2,45-3c11.4-8.8,11.2-23.1,8.3-30.6c-0.1-0.2,0-0.4,0.2-0.5c0.2-0.1,0.4,0,0.5,0.2
				c3,7.7,3.1,22.3-8.6,31.4c-6.7,5.2-21.9,6.3-45.2,3.2c-0.3,11.4-4.5,35.5-6.9,43.2C301.7,231.8,301.5,231.9,301.4,231.9z"/>
			<path class="st10" d="M297,173.6c-2.5,5.1-5.8,10.4-9.4,15.5c0.1,2.2,0.2,4.6,0.3,7C293.4,187.3,297,173.6,297,173.6
				C297,173.6,297,173.6,297,173.6z"/>
			<g>
				<path class="st15" d="M337.7,105.1c-0.4,1.5-0.8,2.9-1.3,4.3c-0.4,1.4-0.9,2.8-1.4,4.2c-1,2.8-2.1,5.5-3.3,8.2
					c-1.2,2.7-2.5,5.4-4,8.1c-1.5,2.7-3.1,5.4-5.2,8.1l-0.6,0.9c-0.4,0.5-0.9,1-1.5,1.2c-1.1,0.5-2.2,1-3.4,1.3
					c-1.1,0.4-2.3,0.6-3.5,0.9c-1.2,0.2-2.4,0.3-3.6,0.4c-0.6,0-1.2,0-1.8,0l-0.9-0.1c-0.3,0-0.6-0.1-1-0.1
					c-1.9-0.1-3.4-1.8-3.3-3.7c0-0.3,0.1-0.7,0.2-1l1.3-3.7c0-0.1,0.3-0.3,0.4-0.5l0.5-0.5l1-0.9c0.7-0.6,1.3-1.2,2-1.8
					c0.7-0.6,1.3-1.2,1.9-1.7c0.6-0.5,1.2-1.1,1.7-1.7l-2.2,2.1c1.1-1.9,2.2-4.2,3.2-6.5l0.8-1.8l0.7-1.8c0.5-1.2,1-2.4,1.4-3.7
					c0.9-2.5,1.8-5,2.7-7.6l2.6-7.6l0.1-0.2c1.5-4.5,6.4-6.9,10.9-5.4C336.5,96.2,338.9,100.8,337.7,105.1z"/>
			</g>
			<path class="st8" d="M329.4,91.1c-4.6,1.3-10.7,6.4-12.8,17.8c3.1,4.8,17.4,1.1,17.4,1.1L329.4,91.1z"/>
			<path class="st15" d="M308,134.4l0.5,4.9c-1.4,5-7.5,2.1-7.5,2.1l-3.5-0.2c-1.2-0.1-2.2-1.1-2.3-2.5l-0.4-3.5
				c-0.2-1.6,0.8-3,2.2-3.1l3.1-0.3c0.9-0.1,1.8,0,2.6,0.4L308,134.4z"/>
			<path class="st8" d="M331.6,90.4c7.2-1.5,15.4-2.7,22.8-3.1c8.4-0.5,15.4,6.3,15.2,14.8c-0.6,25.2,2.9,51.7,2.4,56.5
				c0,0-53.1,7.6-61.3-8.1c-3.4-22.4,7.6-19.5,8.5-45.2C319.5,98.5,325,91.8,331.6,90.4z"/>
			<path class="st4" d="M327.5,113.1l0.2-0.1l0-0.2c0.3-1.7,1.6-2.9,3.2-3l0.2,0l0.1-0.2c0.6-1.7,2-2.7,3.7-2.8l0,0
				c1.8,0.1,3.4,1.3,4.1,3l0.1,0.3l0.3-0.1c0,0,0,0,0,0c0.3-0.1,0.7-0.1,1-0.1c0.1,0,0.1,0,0.2,0c2,0.1,3.7,1.9,3.8,4
				c0.1,2.2-1.4,3.9-3.5,3.9l-12.6-0.2c-1.2,0-2.3-1.1-2.4-2.4C325.9,114.3,326.5,113.4,327.5,113.1z"/>
			<g>
				<path class="st15" d="M369.1,95.8l0.5,1.1l0.4,1c0.3,0.7,0.5,1.3,0.8,1.9c0.5,1.3,0.9,2.6,1.4,3.9c0.8,2.6,1.6,5.3,2.1,8.1
					c0.3,1.4,0.5,2.8,0.7,4.2c0.2,1.4,0.3,2.9,0.4,4.3c0.2,2.9,0.2,6-0.3,9.1l-0.1,0.7c-0.1,1-0.5,1.9-1,2.6
					c-1.1,1.6-2.2,2.8-3.3,3.8c-1.1,1-2.2,1.9-3.3,2.6c-2.2,1.5-4.4,2.7-6.6,3.8c-2.2,1.1-4.5,2-6.7,2.8c-2.3,0.8-4.5,1.5-6.9,2.1
					c-2.3,0.5-4.7-0.9-5.2-3.3c-0.4-1.7,0.3-3.4,1.5-4.4l0.2-0.1c1.7-1.3,3.5-2.7,5.2-4c1.7-1.3,3.4-2.7,5-4c1.6-1.3,3.1-2.7,4.4-4
					c0.6-0.7,1.2-1.3,1.7-1.9c0.4-0.6,0.8-1.2,0.9-1.5l-1.1,3.4c0-1.9-0.2-4-0.6-6.1c-0.4-2.1-0.9-4.3-1.4-6.5
					c-0.6-2.2-1.3-4.4-2-6.6c-0.4-1.1-0.8-2.2-1.1-3.3l-1.1-3.1l-0.2-0.5c-1.7-4.4,0.6-9.4,5.1-11C362.5,89.7,367.2,91.8,369.1,95.8
					z"/>
			</g>
			<path class="st8" d="M357.2,87.4c3.7,0.4,11.4,3.2,16.5,13.7c-5,9.9-18.1,13.7-18.1,13.7S346.6,92.7,357.2,87.4z"/>
			<g>
				<g>
					<g>
						<path class="st8" d="M327.2,158.5h-43.2c-1.9,0-2.3-0.4-0.9-1l19.7-7.5c1.4-0.5,4.1-1,5.9-1H352c1.9,0,2.3,0.4,0.9,1
							l-19.7,7.5C331.8,158,329.1,158.5,327.2,158.5z"/>
						<path class="st18" d="M327.2,158.5h-43.2c-1.9,0-2.3-0.4-0.9-1l19.7-7.5c1.4-0.5,4.1-1,5.9-1H352c1.9,0,2.3,0.4,0.9,1
							l-19.7,7.5C331.8,158,329.1,158.5,327.2,158.5z"/>
					</g>
				</g>
				<g>
					<g>
						<path class="st8" d="M327.2,156.7h-43.2c-1.9,0-3.7-1.5-4-3.4l-4.9-26.6c-0.3-1.9,0.9-3.4,2.8-3.4h43.2c1.9,0,3.7,1.5,4,3.4
							l4.9,26.6C330.4,155.2,329.1,156.7,327.2,156.7z"/>
						<path class="st19" d="M327.2,156.7h-43.2c-1.9,0-3.7-1.5-4-3.4l-4.9-26.6c-0.3-1.9,0.9-3.4,2.8-3.4h43.2c1.9,0,3.7,1.5,4,3.4
							l4.9,26.6C330.4,155.2,329.1,156.7,327.2,156.7z"/>
					</g>
					<path class="st13" d="M326.2,156.7h-42.2c-1.9,0-3.7-1.5-4-3.4l-4.9-26.6c-0.3-1.9,0.9-3.4,2.8-3.4h42.2c1.9,0,3.7,1.5,4,3.4
						l4.9,26.6C329.4,155.2,328.1,156.7,326.2,156.7z"/>
				</g>
			</g>
			<path class="st15" d="M345.9,142.2l2.2,2.3c2,4.8-4.6,6.3-4.6,6.3l-2.9,2c-1,0.7-2.4,0.5-3.4-0.5l-2.4-2.5
				c-1.1-1.1-1.2-2.9-0.2-3.8l2.2-2.2c0.6-0.6,1.4-1.1,2.3-1.3l3.8-1.1C343.9,141.1,345.1,141.4,345.9,142.2z"/>
			<path class="st15" d="M334.5,93c0.3-1.1,1.3-2.9,2.6-3.7c0.3-1.3,0-2.7-0.7-4.2l11.9-10c0.7,5,2.5,11.6,4.9,13.8
				c-2.7,2.5-7.8,7.1-14,8.1C333,98,334,95.4,334.5,93z"/>
			<path class="st10" d="M336.7,85.5l10.2-4.2c-1.3,5.2-7,9.5-9.6,7.4C337.3,87.6,337.1,86.6,336.7,85.5z"/>
			<path class="st16" d="M336.1,69.5c0,3.7-3,6.6-6.6,6.6c-3.7,0-6.6-3-6.6-6.6c0-3.7,3-6.6,6.6-6.6
				C333.1,62.9,336.1,65.8,336.1,69.5z"/>
			<path class="st15" d="M347.5,65.8c1.6,7.6,2.5,12.8-1,17.1c-6.9,8.6-13.2,5.9-17-1.1c-3.4-6.3-5.4-17.6,1.1-22.5
				C337,54.5,345.9,58.2,347.5,65.8z"/>
			<path class="st16" d="M332.6,63.7c-1.5,1.8-5.6,5.4-11.5,2.1c-5.9-3.3-3.5-11.2,0.1-13.7c5.1-3.7,10.3-1.4,10.3-1.4
				s-0.5-4.2,5.4-4.4c5.9-0.2,5.6,4,5.6,4s7.7-3.2,11.3,2.7c3.4,5.5-1.7,9.8-1.7,9.8s5.3,2.3,3.6,7.8c-1.5,4.7-5.8,4.7-5.8,4.7
				s-5.7,0.4-6.6-3.7c-1-4.1,0.8-7.2,0.8-7.2S335,68,332.6,63.7z"/>
			<path class="st16" d="M341.3,72.7C341.3,72.7,341.3,72.7,341.3,72.7l-1.4-0.1c-0.1,0-0.2-0.1-0.2-0.3c0-0.1,0.1-0.2,0.3-0.2
				l1.4,0.1l7.1-1.7c0.1,0,0.3,0,0.3,0.2c0,0.1,0,0.3-0.2,0.3L341.3,72.7C341.3,72.7,341.3,72.7,341.3,72.7z"/>
			<path class="st16" d="M351.5,63.6c-0.2,0-0.5,0-0.7,0c-0.3,0-0.5-0.3-0.4-0.5c0-0.3,0.3-0.5,0.5-0.4c1.6,0.2,2.8-0.3,3.5-1.3
				c0.5-0.8,0.6-1.7,0.2-2.5c-0.1-0.2,0-0.5,0.2-0.7c0.2-0.1,0.5,0,0.7,0.2c0.6,1.1,0.5,2.5-0.2,3.6C354.4,63,353.1,63.6,351.5,63.6
				z"/>
			<path class="st16" d="M324,68.5c-0.9,0-1.9-0.1-3-0.4c-2.8-0.8-4.6-2.8-5-5.6c-0.3-2.9,1.1-6,3.4-7.2c0.2-0.1,0.5,0,0.7,0.2
				c0.1,0.2,0,0.5-0.2,0.7c-1.9,1-3.1,3.7-2.8,6.2c0.2,1.4,0.9,3.9,4.2,4.8c5.9,1.6,8.8-2.2,10.1-4.6c0.1-0.2,0.4-0.3,0.7-0.2
				c0.2,0.1,0.3,0.4,0.2,0.7C331,65.3,328.6,68.5,324,68.5z"/>
			<path class="st16" d="M335.1,80c-0.3,0.1-0.7,0.3-1.1,0.4c-0.1,0-0.2,0-0.2-0.2c0-0.1,0.1-0.2,0.2-0.3c3-0.7,4-3.2,4-3.2
				c0-0.1,0.2-0.2,0.3-0.1c0.1,0,0.1,0.2,0.1,0.3C338.3,77,337.4,79,335.1,80z"/>
			<path class="st10" d="M338.1,69.9c0,0,1.2-1.1,2.6-0.8C339.3,69.7,338.1,69.9,338.1,69.9z"/>
			<path class="st10" d="M338.3,70.5c0,0,1.3-0.7,2.5-0.1C339.5,70.7,338.3,70.5,338.3,70.5z"/>
			<path class="st10" d="M327.8,72.7c0,0-0.9-0.5-1.2,0.1C327.4,73,327.8,72.7,327.8,72.7z"/>
			<path class="st10" d="M327.9,73.3c0,0-0.7-0.5-0.8,0.3C327.7,73.7,327.9,73.3,327.9,73.3z"/>
			<path class="st15" d="M352.2,74c-0.6,2-2.1,3.5-3.6,4.3c-2.3,1.2-4-0.8-3.8-3.2c0.2-2.2,1.6-5.4,4.1-5.6
				C351.4,69.3,352.9,71.7,352.2,74z"/>
			<path class="st16" d="M336.2,70.8c0.2,0.6,0,1.2-0.4,1.3c-0.4,0.1-0.9-0.3-1-0.9c-0.2-0.6,0-1.2,0.4-1.3
				C335.6,69.8,336,70.2,336.2,70.8z"/>
			<path class="st16" d="M329.8,72.6c0.2,0.6,0,1.2-0.4,1.3c-0.4,0.1-0.9-0.3-1-0.9c-0.2-0.6,0-1.2,0.4-1.3
				C329.2,71.6,329.6,72,329.8,72.6z"/>
			<g>
				<path class="st16" d="M326.1,77.2c-0.4,0-0.8-0.2-1-0.6l-1-1.8c-0.1-0.2-0.1-0.5-0.1-0.7c0.1-0.2,0.3-0.3,0.5-0.4l5.2-1.2
					c0.4-0.1,1,0.1,1.2,0.6l1,1.8c0.1,0.2,0.1,0.5,0.1,0.7c-0.1,0.2-0.3,0.3-0.5,0.4l-5.2,1.2C326.2,77.1,326.2,77.2,326.1,77.2z
					 M329.9,73C329.9,73,329.9,73,329.9,73l-5.3,1.2c-0.1,0-0.1,0-0.2,0.1c0,0.1,0,0.1,0,0.2l1,1.8c0.1,0.2,0.4,0.4,0.7,0.3l5.2-1.2
					c0.1,0,0.1,0,0.2-0.1c0-0.1,0-0.1,0-0.2l-1-1.8C330.4,73.1,330.1,73,329.9,73z"/>
				<path class="st20" d="M331.9,72.7l2.2,4.8c0,0-1.6,1.3-3.1,0.9C330.5,75.6,331.9,72.7,331.9,72.7z"/>
				<path class="st16" d="M334.7,75.2c-0.4,0-0.8-0.2-1-0.6l-1-1.8c-0.1-0.2-0.1-0.5-0.1-0.7c0.1-0.2,0.3-0.3,0.5-0.4l5.2-1.2
					c0.4-0.1,1,0.1,1.2,0.6l1,1.8c0.1,0.2,0.1,0.5,0.1,0.7c-0.1,0.2-0.3,0.3-0.5,0.4l0,0l-5.2,1.2C334.8,75.2,334.8,75.2,334.7,75.2
					z M338.6,71.1C338.5,71.1,338.5,71.1,338.6,71.1l-5.3,1.2c-0.1,0-0.1,0-0.2,0.1c0,0.1,0,0.1,0,0.2l1,1.8
					c0.1,0.2,0.4,0.4,0.7,0.3l5.2-1.2c0.1,0,0.1,0,0.2-0.1c0-0.1,0-0.1,0-0.2l-1-1.8C339,71.2,338.8,71.1,338.6,71.1z M340.1,73.8
					L340.1,73.8L340.1,73.8z"/>
				<path class="st16" d="M331.1,74.2C331.1,74.2,331.1,74.2,331.1,74.2c-0.2-0.1-0.3-0.2-0.2-0.3c0,0,0.4-1.1,2.5-0.7
					c0.1,0,0.2,0.2,0.2,0.3c0,0.1-0.2,0.2-0.3,0.2c-1.6-0.3-1.9,0.3-1.9,0.3C331.3,74.1,331.2,74.2,331.1,74.2z"/>
			</g>
			<path class="st16" d="M337.7,68.6c0.1,0,0.1-0.1,0.1-0.1c0.1-0.2,0.1-0.4-0.1-0.5c-1.6-1.3-3.2-0.7-3.3-0.7
				c-0.2,0.1-0.3,0.3-0.2,0.5c0.1,0.2,0.3,0.3,0.5,0.2l0,0c0.1,0,1.3-0.4,2.6,0.6C337.4,68.6,337.5,68.6,337.7,68.6z"/>
			<path class="st16" d="M325.8,71.7c0.1,0,0.2-0.1,0.3-0.2c0.5-1.6,1.8-1.9,1.8-1.9c0.2-0.1,0.3-0.3,0.3-0.5
				c-0.1-0.2-0.3-0.3-0.5-0.3c-0.1,0-1.7,0.5-2.3,2.4c-0.1,0.2,0,0.4,0.2,0.5C325.6,71.7,325.7,71.7,325.8,71.7z"/>
		</g>
	</g>
</g>
<g id="Folder">
	<g>
		<path class="st10" d="M252.8,337.4v65.8c0,7.2,5.9,13,13,13h16l-5.7-72.6L252.8,337.4z"/>
		<g>
			<path class="st8" d="M228.9,338l-6.4,8c-1.2,1.4-2.9,2.3-4.7,2.3h-57.7c-3.1,0-5.8,2.5-6,5.5l-5.1,61.4c-0.3,3.1,2,5.5,5.1,5.5
				h113c3.1,0,5.8-2.5,6-5.5l6.1-74c0.3-3.1-2-5.5-5.1-5.5h-40.5C231.8,335.7,230.1,336.6,228.9,338z"/>
			<path class="st19" d="M228.9,338l-6.4,8c-1.2,1.4-2.9,2.3-4.7,2.3h-57.7c-3.1,0-5.8,2.5-6,5.5l-5.1,61.4c-0.3,3.1,2,5.5,5.1,5.5
				h113c3.1,0,5.8-2.5,6-5.5l6.1-74c0.3-3.1-2-5.5-5.1-5.5h-40.5C231.8,335.7,230.1,336.6,228.9,338z"/>
		</g>
		<path class="st8" d="M206.1,342.4l-5.2,7.6c-0.9,1.4-2.6,2.2-4.3,2.2h-47.5c-3.1,0-5.4,2.4-5.2,5.3l4.2,58.2
			c0.2,2.9,2.9,5.3,5.9,5.3h113c3.1,0,5.4-2.4,5.2-5.3l-5.1-70.1c-0.2-2.9-2.9-5.3-5.9-5.3h-50.8C208.7,340.2,207.1,341,206.1,342.4
			z"/>
	</g>
</g>
</svg>
